<?xml version="1.0" encoding="iso-8859-1"?>
<!-- Generator: Adobe Illustrator 19.0.0, SVG Export Plug-In . SVG Version: 6.00 Build 0)  -->
<svg version="1.1" id="Capa_1" xmlns="http://www.w3.org/2000/svg" xmlns:xlink="http://www.w3.org/1999/xlink" x="0px" y="0px"
	 viewBox="0 0 369.48 369.48" style="enable-background:new 0 0 369.48 369.48;" xml:space="preserve">
<g>
	<g>
		<path d="M291.84,96.16l-0.44-0.44c-2.667-3.227-5.493-6.32-8.48-9.28c-50.665-50.642-131.519-54.486-186.76-8.88l-0.48,0.4
			c-3.227,2.667-6.32,5.493-9.28,8.48c-50.642,50.665-54.486,131.519-8.88,186.76l0.4,0.48c2.667,3.227,5.493,6.32,8.48,9.28
			c50.665,50.642,131.519,54.486,186.76,8.88l0.52-0.44c3.227-2.667,6.32-5.493,9.28-8.48
			C333.602,232.255,337.446,151.401,291.84,96.16z M311.08,159.24L311.08,159.24l-44.92,19.64l-23.36-10.16l14.96-20.32l48.88-5.44
			C308.477,148.283,309.96,153.722,311.08,159.24z M253.6,184.16l-16.72,7.32l-5.44-7.36l5.2-7.4L253.6,184.16z M287.88,107.44
			c5.996,7.988,11.043,16.646,15.04,25.8l-37.08,4.16L287.88,107.44z M235.4,66.12c9.174,3.94,17.859,8.934,25.88,14.88l-30,22.12
			L235.4,66.12z M229.8,116.72l39.6-29.16c2.213,1.947,4.36,3.96,6.44,6.04c2.08,2.08,3.933,4.053,5.56,5.92L252.36,139l-25.32,2.84
			L229.8,116.72z M244.28,149.92l-10.84,14.8l-8.56-4l1-8.88L244.28,149.92z M226.08,174.2c-0.107-0.693-0.28-1.427-0.52-2.2
			l-0.12-0.16l1.8,0.8L226.08,174.2z M226.439,194.164l1.041,1.436l-1.64,1.12C226.053,195.815,226.253,194.963,226.439,194.164z
			 M225.666,62.41l-5.346,48.79l-20.52,15.12l-10.12-23.12l19.72-45.08C214.91,59.191,220.344,60.625,225.666,62.41z M184.64,217.52
			c-18.115-0.008-32.794-14.699-32.786-32.814c0.008-18.115,14.699-32.794,32.814-32.786c18.115,0.008,32.794,14.699,32.786,32.814
			c-0.004,8.698-3.462,17.038-9.614,23.186C201.691,214.078,193.342,217.532,184.64,217.52z M197.36,225.52l-0.8,1.8l-1.56-1.16
			L197.36,225.52z M192.64,236.72l-7.6,17.08l-7.32-16.72l7.52-5.56L192.64,236.72z M175.36,226.4l-1.6,1.16l-1.12-1.64
			L175.36,226.4z M151.84,143.52l-2.04-18.4l14.84,10.8l-4,8.56L151.84,143.52z M154.92,153.92l-0.52,0.52l-1.16,1.2l-0.2-1.96
			L154.92,153.92z M152.64,226.6l9.16-1.04l3.6,8l-14.96,11.16L152.64,226.6z M153.8,216.4l0.2-1.92l0.52,0.52l1.24,1.16
			L153.8,216.4z M172.12,143.8l0.8-1.8l1.56,1.16L172.12,143.8z M176.64,132.72l7.44-16.96l7.32,16.72l-7.36,5.44L176.64,132.72z
			 M193.92,143.04l1.6-1.16l0.76,1.76L193.92,143.04z M207.32,144l-3.6-8l15.12-11.28l-2.2,18.12L207.32,144z M215.32,153.16
			l-0.2,1.92l-0.52-0.52l-1.24-1.16L215.32,153.16z M215.96,215.88l-1.92-0.2l0.52-0.52l1.16-1.24L215.96,215.88z M208.64,224.96
			l8.88,1l2.04,18.4l-14.92-10.84L208.64,224.96z M184.64,55.76c4.865-0.005,9.725,0.262,14.56,0.8l-14.96,34.16l-14.92-34
			C174.403,56.099,179.519,55.779,184.64,55.76z M159.16,58.28l19.64,44.92l-10.16,23.36l-20.32-14.96l-5.52-48.92
			C148.15,60.854,153.616,59.384,159.16,58.28z M143.8,161.84l-8,3.6l-11.16-14.92l18.12,2.04L143.8,161.84z M143.04,195.08
			c0.187,0.8,0.4,1.587,0.64,2.36l-1.8-0.8L143.04,195.08z M141.64,173.68l1.8-0.96c-0.213,0.773-0.413,1.56-0.6,2.36L141.64,173.68
			z M137.64,185.32l-5,7.4l-17.08-7.6l16.72-7.32L137.64,185.32z M133.16,66.44l4,37.08L107.2,81.48
			C115.238,75.473,123.95,70.425,133.16,66.44z M93.44,93.52L93.44,93.52c1.92-1.92,3.893-3.773,5.92-5.56L138.84,117l2.84,25.32
			l-25.04-2.76l-29.16-39.6C89.373,97.8,91.36,95.653,93.44,93.52z M80.92,108.04l22.12,30.04l-37-4
			C69.969,124.85,74.963,116.111,80.92,108.04z M62.36,143.6l48.76,5.44l15.12,20.52l-23.12,10.12l-45.08-19.72
			C59.118,154.417,60.561,148.952,62.36,143.6z M55.68,184.72c-0.005-4.864,0.262-9.725,0.8-14.56l34.16,14.96l-34,14.92
			C56.02,194.957,55.699,189.841,55.68,184.72z M58.2,210.2l44.92-19.64l23.36,10.16l-14.96,20.32l-48.92,5.52
			C60.774,221.21,59.304,215.745,58.2,210.2z M81.4,262c-5.996-7.988-11.044-16.646-15.04-25.8l37.08-4L81.4,262z M133.84,303.32
			c-9.175-3.94-17.86-8.933-25.88-14.88L138,266.32L133.84,303.32z M139.48,252.72l-39.6,29.16c-2.16-1.893-4.307-3.88-6.44-5.96
			c-2.133-2.08-3.987-4.053-5.56-5.92l29.04-39.48l25.32-2.84L139.48,252.72z M125,219.52l10.84-14.8l8.56,3.76l-0.96,9.04
			L125,219.52z M143.52,307l-0.04-0.08l5.44-48.76l20.52-15.12l10.12,23.12l-19.68,45.16
			C154.337,310.242,148.872,308.799,143.52,307z M184.64,313.68c-4.864,0.005-9.725-0.262-14.56-0.8l14.96-34.16l14.92,34
			C194.877,313.342,189.761,313.662,184.64,313.68z M210.12,311.16l-19.64-44.92l10.16-23.36l20.32,14.96l5.44,48.88
			C221.077,308.556,215.638,310.039,210.12,311.16z M225.44,207.6l8-3.6l11.2,14.92l-18.12-2.2L225.44,207.6z M236.12,303h-0.04
			l-4-37.08l29.96,22.04C254.014,293.964,245.315,299.011,236.12,303z M275.84,275.92c-1.92,1.92-3.893,3.773-5.92,5.56
			l-39.48-29.04l-2.84-25.32l25.08,2.8l29.16,39.6C279.92,271.653,277.92,273.787,275.84,275.92L275.84,275.92z M288.36,261.4
			l-22.12-30.04l37,4C299.311,244.59,294.317,253.329,288.36,261.4z M306.92,225.84l-48.76-5.44l-15.12-20.52l23.12-10.12
			l45.08,19.72C310.163,215.023,308.719,220.488,306.92,225.84z M278.64,184.32l34-14.92c0.62,5.083,0.941,10.199,0.96,15.32
			c0.005,4.864-0.262,9.725-0.8,14.56L278.64,184.32z"/>
	</g>
</g>
<g>
	<g>
		<path d="M359.72,206.76c2.362-0.444,4.535-1.587,6.24-3.28c2.209-2.205,3.447-5.199,3.44-8.32v-20.68
			c0.007-3.121-1.231-6.115-3.44-8.32l0.52,0c-1.705-1.693-3.879-2.836-6.24-3.28v-1.24v-1.28c2.039-0.983,3.758-2.522,4.96-4.44
			l0.24-0.36c1.567-2.697,1.999-5.905,1.2-8.92l-5.32-19.8c-1.593-5.559-6.924-9.191-12.68-8.64l-0.48-1.2l-0.48-1.2
			c4.22-3.572,5.37-9.607,2.76-14.48v-0.36l-10.08-17.44l-0.32-0.56c-2.918-4.766-8.795-6.809-14.04-4.88l-0.8-1.04l-0.76-1
			c3.186-4.705,2.635-11-1.32-15.08l-14.48-14.48c-4.038-4.047-10.401-4.604-15.08-1.32l-1-0.76l-1.04-0.8
			c1.884-5.203-0.115-11.016-4.8-13.96l-0.8-0.48l-17.32-10c-4.922-2.849-11.179-1.753-14.84,2.6l-1.2-0.48l-1.2-0.48
			c0.181-2.398-0.362-4.795-1.56-6.88c-1.485-2.594-3.902-4.524-6.76-5.4h-0.64l-19.52-5.24c-3.015-0.799-6.223-0.367-8.92,1.2
			c-2.071,1.218-3.73,3.029-4.76,5.2h-1.24h-1.28c-0.444-2.361-1.587-4.535-3.28-6.24c-2.205-2.209-5.199-3.447-8.32-3.44H174.4
			c-3.121-0.007-6.115,1.231-8.32,3.44c-1.693,1.705-2.836,3.879-3.28,6.24h-1.24h-1.28c-0.983-2.039-2.522-3.758-4.44-4.96
			l-0.36-0.24c-2.697-1.567-5.905-1.999-8.92-1.2l-19.8,5.32c-5.34,1.55-8.916,6.566-8.64,12.12l-0.92,0.36h-0.24l-1.2,0.52
			c-3.561-4.234-9.597-5.401-14.48-2.8h-0.36L83.48,28.88l-0.56,0.32c-4.753,2.928-6.792,8.795-4.88,14.04L77,44.04l-1,0.76
			c-4.684-3.267-11.035-2.711-15.08,1.32L46.44,60.6c-4.047,4.038-4.604,10.401-1.32,15.08l-0.48,1.04l-0.2,0.24l-0.76,1
			c-5.203-1.884-11.016,0.115-13.96,4.8c-0.184,0.251-0.345,0.519-0.48,0.8l-10,17.32c-2.849,4.922-1.752,11.179,2.6,14.84
			l-0.48,1.2l-0.48,1.2c-2.384-0.173-4.766,0.37-6.84,1.56c-2.594,1.485-4.524,3.902-5.4,6.76c-0.014,0.213-0.014,0.427,0,0.64
			L3.4,146.6c-0.799,3.015-0.367,6.223,1.2,8.92c1.207,2.066,3.004,3.723,5.16,4.76v1.24v1.28c-2.366,0.43-4.544,1.574-6.24,3.28
			c-2.209,2.205-3.447,5.199-3.44,8.32v20.48c-0.007,3.121,1.231,6.115,3.44,8.32c1.696,1.706,3.874,2.851,6.24,3.28v1.24V209
			c-2.039,0.983-3.758,2.522-4.96,4.44l-0.24,0.36c-1.567,2.697-1.999,5.905-1.2,8.92l5.32,19.8c1.506,5.312,6.442,8.911,11.96,8.72
			l0.48,1.2l0.48,1.2c-4.22,3.572-5.37,9.607-2.76,14.48v0.36l10.08,17.44l0.32,0.56c2.928,4.753,8.795,6.792,14.04,4.88l0.8,1.04
			l0.76,1c-3.191,4.54-2.774,10.692,1,14.76l0.32,0.36L60.64,323c4.038,4.047,10.401,4.604,15.08,1.32l1,0.76l1.04,0.8
			c-1.884,5.203,0.115,11.016,4.8,13.96l0.8,0.48l17.32,10c4.922,2.849,11.179,1.752,14.84-2.6l1.2,0.48l1.2,0.48
			c-0.196,2.399,0.348,4.8,1.56,6.88c1.485,2.594,3.902,4.524,6.76,5.4h0.64l19.52,5.24c3.015,0.799,6.223,0.367,8.92-1.2
			c2.072-1.218,3.73-3.029,4.76-5.2h1.24h1.28c0.43,2.366,1.574,4.544,3.28,6.24c2.205,2.209,5.199,3.447,8.32,3.44h20.48
			c3.121,0.007,6.115-1.231,8.32-3.44c1.693-1.705,2.836-3.879,3.28-6.24h1.24h1.28c0.983,2.039,2.522,3.758,4.44,4.96l0.36,0.24
			c2.697,1.567,5.905,1.999,8.92,1.2l19.8-5.32c5.435-1.477,9.112-6.534,8.84-12.16l1.2-0.48l1.2-0.48
			c3.572,4.22,9.607,5.37,14.48,2.76h0.36l17.44-10.08l0.56-0.32c4.766-2.918,6.809-8.795,4.88-14.04l1.04-0.8l1-0.76
			c4.54,3.191,10.692,2.774,14.76-1l0.36-0.32l14.48-14.48c4.047-4.038,4.604-10.401,1.32-15.08l0.76-1l0.8-1.04
			c5.203,1.884,11.016-0.115,13.96-4.8c0.185-0.251,0.346-0.519,0.48-0.8l10-17.32c2.849-4.922,1.753-11.179-2.6-14.84l0.48-1.2
			l0.48-1.2c2.399,0.196,4.8-0.348,6.88-1.56c2.594-1.485,4.524-3.902,5.4-6.76c0.014-0.213,0.014-0.427,0-0.64l5.24-19.52
			c0.799-3.015,0.367-6.223-1.2-8.92c-1.218-2.072-3.029-3.73-5.2-4.76v-1.24V206.76z M359.4,196.2
			c-0.331,0.327-0.775,0.513-1.24,0.52h-2.44c-2.73,0-4.956,2.19-5,4.92c-0.16,1.653-0.347,3.28-0.56,4.88
			c-0.24,1.68-0.48,3.44-0.76,5.24c-0.417,2.536,1.157,4.975,3.64,5.64l2.36,0.64c0.452,0.113,0.84,0.401,1.08,0.8
			c0.171,0.423,0.171,0.897,0,1.32l-5.32,19.8c-0.113,0.452-0.401,0.84-0.8,1.08c-0.423,0.171-0.897,0.171-1.32,0l-2.32-0.6
			c-2.565-0.683-5.216,0.757-6.04,3.28c-0.587,1.52-1.213,3.093-1.88,4.72c-0.667,1.627-1.387,3.307-2.16,5.04
			c-1.085,2.412-0.103,5.253,2.24,6.48l1.76,0.76l0.48,0.28c0.298,0.247,0.508,0.584,0.6,0.96c0.128,0.376,0.128,0.784,0,1.16
			l-0.32,0.6l-10,17.32c-0.501,0.82-1.557,1.101-2.4,0.64l-2.08-1.2c-2.318-1.341-5.281-0.618-6.72,1.64c-0.96,1.307-1.96,2.64-3,4
			c-0.92,1.2-2.04,2.6-3.32,4c-1.706,2.081-1.459,5.14,0.56,6.92l1.48,1.48c0.331,0.328,0.518,0.774,0.52,1.24
			c0.004,0.459-0.168,0.903-0.48,1.24l-14.6,14.92c-0.317,0.256-0.712,0.397-1.12,0.4c-0.466-0.002-0.912-0.189-1.24-0.52
			l-1.72-1.72c-1.949-1.932-5.091-1.932-7.04,0l-4,3.04l-4.24,3.16c-2.183,1.53-2.781,4.504-1.36,6.76l1.12,1.96
			c0.167,0.424,0.167,0.896,0,1.32c-0.113,0.452-0.401,0.84-0.8,1.08h-0.28l-17.48,10.08c-0.388,0.137-0.812,0.137-1.2,0
			c-0.452-0.113-0.84-0.401-1.08-0.8l-1.2-2.08c-1.333-2.103-4.011-2.904-6.28-1.88l-4.88,2.12l-4.92,1.96
			c-2.405,0.901-3.736,3.477-3.08,5.96l0.6,2.32c0.178,0.436,0.178,0.924,0,1.36c-0.24,0.399-0.628,0.687-1.08,0.8l-19.96,5.48
			c-0.423,0.171-0.897,0.171-1.32,0c-0.338-0.243-0.579-0.597-0.68-1l-0.64-2.32c-0.687-2.576-3.274-4.159-5.88-3.6l-5,0.72
			l-5.28,0.6c-2.531,0.159-4.543,2.187-4.68,4.72v2.44c-0.002,0.466-0.189,0.912-0.52,1.24c-0.331,0.327-0.775,0.513-1.24,0.52
			H174.4c-0.465-0.007-0.909-0.193-1.24-0.52c-0.331-0.328-0.518-0.774-0.52-1.24v-2.44c0-2.73-2.19-4.956-4.92-5l-4.88-0.56
			l-5.24-0.76c-2.536-0.417-4.975,1.157-5.64,3.64l-0.64,2.36c-0.113,0.452-0.401,0.84-0.8,1.08c-0.423,0.171-0.897,0.171-1.32,0
			l-19.8-5.32c-0.452-0.113-0.84-0.401-1.08-0.8c-0.171-0.423-0.171-0.897,0-1.32l0.6-2.32c0.683-2.565-0.757-5.216-3.28-6.04
			l-5-1.84l-4.76-2.24c-2.412-1.085-5.253-0.103-6.48,2.24l-0.76,1.76l-0.28,0.48c-0.247,0.298-0.584,0.508-0.96,0.6
			c-0.377,0.125-0.783,0.125-1.16,0l-0.6-0.32l-17.32-10c-0.82-0.501-1.101-1.557-0.64-2.4l1.2-2.08
			c1.341-2.318,0.618-5.281-1.64-6.72l-4-3l-4-3.32c-1.981-1.617-4.863-1.479-6.68,0.32L70.84,316
			c-0.341,0.337-0.801,0.524-1.28,0.52c-0.466-0.002-0.912-0.189-1.24-0.52l-14.88-14.56c-0.256-0.317-0.397-0.712-0.4-1.12
			c0.002-0.466,0.189-0.912,0.52-1.24l1.72-1.72c1.932-1.949,1.932-5.091,0-7.04l-3.04-4c-1.12-1.44-2.173-2.853-3.16-4.24
			c-1.53-2.183-4.504-2.781-6.76-1.36l-1.96,1.12c-0.424,0.167-0.896,0.167-1.32,0c-0.452-0.113-0.84-0.401-1.08-0.8v-0.28
			l-10.08-17.44c-0.134-0.389-0.134-0.811,0-1.2c0.113-0.452,0.401-0.84,0.8-1.08l2.08-1.2c2.124-1.336,2.928-4.04,1.88-6.32
			c-0.747-1.627-1.453-3.253-2.12-4.88c-0.667-1.627-1.32-3.267-1.96-4.92c-0.937-2.451-3.609-3.761-6.12-3l-2.32,0.6
			c-0.436,0.178-0.924,0.178-1.36,0c-0.399-0.24-0.687-0.628-0.8-1.08l-5.32-20.04c-0.171-0.423-0.171-0.897,0-1.32
			c0.243-0.338,0.597-0.579,1-0.68l2.32-0.64c2.575-0.687,4.159-3.274,3.6-5.88c-0.267-1.707-0.507-3.373-0.72-5
			c-0.213-1.627-0.413-3.387-0.6-5.28c-0.159-2.531-2.187-4.543-4.72-4.68h-2.44c-0.466-0.002-0.912-0.189-1.24-0.52
			c-0.327-0.331-0.513-0.775-0.52-1.24v-20.48c0.007-0.465,0.193-0.909,0.52-1.24c0.328-0.331,0.774-0.518,1.24-0.52h2.44
			c2.73,0,4.956-2.19,5-4.92c0.16-1.627,0.347-3.253,0.56-4.88c0.213-1.627,0.467-3.373,0.76-5.24
			c0.417-2.536-1.157-4.975-3.64-5.64l-2.32-0.64c-0.452-0.113-0.84-0.401-1.08-0.8c-0.171-0.423-0.171-0.897,0-1.32l5.32-19.8
			c0.113-0.452,0.401-0.84,0.8-1.08c0.423-0.171,0.897-0.171,1.32,0l2.28,0.6c2.637,0.719,5.363-0.813,6.12-3.44
			c0.587-1.52,1.213-3.093,1.88-4.72c0.667-1.627,1.373-3.253,2.12-4.88c1.085-2.412,0.103-5.253-2.24-6.48l-1.76-0.76l-0.48-0.28
			c-0.298-0.247-0.508-0.584-0.6-0.96c-0.125-0.377-0.125-0.783,0-1.16l0.32-0.6l10-17.32c0.501-0.82,1.557-1.101,2.4-0.64l2.08,1.2
			c2.308,1.348,5.268,0.644,6.72-1.6c0.96-1.307,1.96-2.64,3-4v-0.28l3.12-4c1.617-1.981,1.479-4.863-0.32-6.68l-1.72-1.72
			c-0.66-0.695-0.66-1.785,0-2.48l14.48-14.48c0.695-0.66,1.785-0.66,2.48,0l1.72,1.72c1.949,1.932,5.091,1.932,7.04,0l4-3.04
			l4.24-3.16c2.287-1.484,2.963-4.527,1.52-6.84l-1.12-1.96c-0.167-0.424-0.167-0.896,0-1.32c0.113-0.452,0.401-0.84,0.8-1.08h0.28
			l17.48-10.08c0.389-0.134,0.811-0.134,1.2,0c0.452,0.113,0.84,0.401,1.08,0.8l1.2,2.08c1.288,2.204,4.03,3.083,6.36,2.04
			l4.72-2.44h0.24l4.68-1.84c2.463-0.905,3.808-3.559,3.08-6.08L128,20.2c-0.178-0.436-0.178-0.924,0-1.36
			c0.24-0.399,0.628-0.687,1.08-0.8l20.08-5.32c0.423-0.171,0.897-0.171,1.32,0c0.338,0.243,0.579,0.597,0.68,1l0.64,2.32
			c0.687,2.576,3.274,4.159,5.88,3.6l5-0.72l5.28-0.6c2.517-0.157,4.523-2.163,4.68-4.68V11.2c0.002-0.466,0.189-0.912,0.52-1.24
			c0.328-0.331,0.774-0.518,1.24-0.52h20.48c0.466,0.002,0.912,0.189,1.24,0.52c0.331,0.328,0.518,0.774,0.52,1.24v2.44
			c0,2.73,2.19,4.956,4.92,5l4.88,0.56l5.24,0.76c2.536,0.417,4.975-1.157,5.64-3.64l0.64-2.36c0.113-0.452,0.401-0.84,0.8-1.08
			c0.423-0.171,0.897-0.171,1.32,0l19.8,5.32c0.452,0.113,0.84,0.401,1.08,0.8c0.171,0.423,0.171,0.897,0,1.32l-0.6,2.32
			c-0.694,2.624,0.833,5.323,3.44,6.08l4.72,1.88l4.88,2.12c2.412,1.085,5.253,0.103,6.48-2.24l0.76-1.76l0.28-0.48
			c0.247-0.298,0.584-0.508,0.96-0.6c0.376-0.128,0.784-0.128,1.16,0l0.6,0.32l17.32,10c0.82,0.501,1.101,1.557,0.64,2.4l-1.2,2.08
			c-1.341,2.318-0.618,5.281,1.64,6.72l4,3l4,3.28c1.981,1.617,4.863,1.479,6.68-0.32l1.72-1.72c0.695-0.66,1.785-0.66,2.48,0
			l14.48,14.48c0.66,0.695,0.66,1.785,0,2.48l-1.72,1.72c-1.932,1.949-1.932,5.091,0,7.04l3.04,4c1.12,1.44,2.173,2.853,3.16,4.24
			c1.537,2.122,4.451,2.698,6.68,1.32l1.96-1.12c0.424-0.167,0.896-0.167,1.32,0c0.452,0.113,0.84,0.401,1.08,0.8v0.28L341,106.12
			c0.134,0.389,0.134,0.811,0,1.2c-0.113,0.452-0.401,0.84-0.8,1.08l-2.08,1.2c-1.98,1.457-2.607,4.136-1.48,6.32
			c0.747,1.627,1.453,3.253,2.12,4.88c0.667,1.627,1.32,3.267,1.96,4.92c0.901,2.405,3.477,3.736,5.96,3.08l2.32-0.6
			c0.436-0.178,0.924-0.178,1.36,0c0.399,0.24,0.687,0.628,0.8,1.08l5.48,19.96c0.171,0.423,0.171,0.897,0,1.32
			c-0.243,0.338-0.597,0.579-1,0.68l-2.32,0.64c-2.576,0.687-4.159,3.274-3.6,5.88c0.28,1.72,0.52,3.36,0.72,5
			c0.2,1.64,0.44,3.48,0.6,5.28c0.159,2.531,2.187,4.543,4.72,4.68h2.44c0.466,0.002,0.912,0.189,1.24,0.52
			c0.331,0.328,0.518,0.774,0.52,1.24l-0.04,20.48C359.918,195.426,359.731,195.872,359.4,196.2z"/>
	</g>
</g>
<g>
</g>
<g>
</g>
<g>
</g>
<g>
</g>
<g>
</g>
<g>
</g>
<g>
</g>
<g>
</g>
<g>
</g>
<g>
</g>
<g>
</g>
<g>
</g>
<g>
</g>
<g>
</g>
<g>
</g>
</svg>
