<svg id="Capa_1" enable-background="new 0 0 512.017 512.017" height="512" viewBox="0 0 512.017 512.017" width="512" xmlns="http://www.w3.org/2000/svg"><g><path d="m443.984 4.393c-2.813-2.813-6.628-4.393-10.607-4.393s-7.794 1.58-10.606 4.393l-31.82 31.82-10.607-10.607c-5.856-5.858-15.354-5.858-21.213 0s-5.858 15.355 0 21.213l10.607 10.607-21.213 21.214-10.607-10.607c-5.857-5.858-15.355-5.858-21.213 0s-5.858 15.355 0 21.213l21.214 21.213-41.191 41.191c-43.64-34.427-99.789-27.49-135.268 7.989-10.905 10.905-18.385 24.489-22.231 40.37-1.588 6.547-8.173 10.996-15.939 10.843-35.049-.723-66.686 11.217-89.108 33.64-25.955 25.952-37.758 62.648-33.237 103.329 4.381 39.432 23.719 78.072 54.449 108.803 33.245 33.245 78.416 55.393 125.606 55.393 33.923 0 64.2-11.855 86.525-34.181 22.422-22.422 34.368-54.068 33.64-89.108-.163-7.797 4.296-14.352 10.839-15.938 15.885-3.848 29.469-11.328 40.374-22.233 35.339-35.34 42.53-91.479 7.988-135.267l41.191-41.191 21.213 21.213c5.856 5.858 15.354 5.858 21.213 0 5.858-5.858 5.858-15.355 0-21.213l-10.606-10.606 21.213-21.213 10.607 10.607c5.857 5.858 15.355 5.858 21.213 0s5.858-15.355 0-21.213l-10.607-10.606 31.82-31.82c5.858-5.858 5.858-15.355 0-21.213zm-165.852 250.705-21.214-21.213c10.57-10.57 90.493-90.493 102.213-102.212l21.214 21.213zm53.033 74.246c-6.951 6.951-15.773 11.758-26.228 14.291-20.34 4.933-34.226 23.734-33.767 45.719.566 27.18-8.03 50.441-24.858 67.27-40.94 40.939-117.068 31.423-169.706-21.213-25.933-25.932-42.214-58.215-45.846-90.903-3.494-31.439 5.254-59.426 24.632-78.803 16.83-16.829 40.071-25.422 67.27-24.86 21.989.469 40.786-13.425 45.721-33.77 2.531-10.45 7.339-19.273 14.289-26.223 22.645-22.643 60.063-31.007 92.603-7.75l-50.176 50.176c-5.854 5.853-5.858 15.356 0 21.213l42.427 42.427c5.857 5.857 15.355 5.858 21.213 0l50.177-50.176c23.256 32.541 14.893 69.959-7.751 92.602zm80.999-187.065-42.427-42.426 63.64-63.64 42.427 42.427c-21.694 21.693-39.669 39.669-63.64 63.639z"/><path d="m225.099 286.918c-.001-.002-.003-.003-.005-.005-35.123-35.119-92.146-35.123-127.274.005-35.09 35.09-35.08 92.199 0 127.279 35.125 35.125 92.152 35.129 127.279 0 35.089-35.089 35.091-92.183.004-127.274-.001-.002-.002-.003-.004-.005zm-33.161 11.948-35.782 35.782-50.076-7.154c2.923-7.044 7.234-13.644 12.953-19.363 19.924-19.923 50.163-22.696 72.905-9.265zm-37.118 111.283c-8.492-.925-16.584-3.615-23.84-7.9l19.872-19.872zm-52.952-52.953 27.772 3.968-19.871 19.871c-4.361-7.399-6.985-15.542-7.901-23.839zm102.018 35.788c-5.634 5.635-12.202 10.006-19.359 12.976l-7.157-50.1 35.781-35.78c13.555 23 10.468 53.171-9.265 72.904z"/></g></svg>