<?xml version="1.0" encoding="iso-8859-1"?>
<!-- Generator: Adobe Illustrator 19.0.0, SVG Export Plug-In . SVG Version: 6.00 Build 0)  -->
<svg version="1.1" id="Capa_1" xmlns="http://www.w3.org/2000/svg" xmlns:xlink="http://www.w3.org/1999/xlink" x="0px" y="0px"
	 viewBox="0 0 479.979 479.979" style="enable-background:new 0 0 479.979 479.979;" xml:space="preserve">
<g>
	<g>
		<path d="M383.99,103.979h16c13.255,0,24-10.745,24-24v-16c0-13.255-10.745-24-24-24h-16c-4.418,0-8,3.582-8,8v16h-16V22.915
			l-18.128,2.264c-22.567,2.107-45.039-4.908-62.4-19.48c-10.46-7.941-25.034-7.546-35.048,0.952c-2.653,1.915-6.235,1.915-8.888,0
			c-10.016-8.495-24.59-8.888-35.048-0.944c-17.362,14.569-39.834,21.581-62.4,19.472l-18.088-2.264v41.064h-16v-16
			c0-4.418-3.582-8-8-8h-16c-13.255,0-24,10.745-24,24v16c0,13.255,10.745,24,24,24h16c4.418,0,8-3.582,8-8v-16h16v64h-16v-16
			c0-4.418-3.582-8-8-8h-16c-13.255,0-24,10.745-24,24v16c0,13.255,10.745,24,24,24h16c4.418,0,8-3.582,8-8v-16h16v64h-16v-16
			c0-4.418-3.582-8-8-8h-16c-13.255,0-24,10.745-24,24v16c0,13.255,10.745,24,24,24h16c4.418,0,8-3.582,8-8v-16h16v17.008
			l1.248,1.96c13.868,21.715,24.245,45.47,30.752,70.4v150.632h16v-16h16v16h16v-16h16v16h16v-16h16v16h16v-16h16v16h16v-16h16v16
			h16V329.347c6.507-24.93,16.884-48.685,30.752-70.4l1.248-1.96v-17.008h16v16c0,4.418,3.582,8,8,8h16c13.255,0,24-10.745,24-24
			v-16c0-13.255-10.745-24-24-24h-16c-4.418,0-8,3.582-8,8v16h-16v-64h16v16c0,4.418,3.582,8,8,8h16c13.255,0,24-10.745,24-24v-16
			c0-13.255-10.745-24-24-24h-16c-4.418,0-8,3.582-8,8v16h-16v-64h16v16C375.99,100.397,379.571,103.979,383.99,103.979z
			 M391.99,55.979h8c4.418,0,8,3.582,8,8v16c0,4.418-3.582,8-8,8h-8V55.979z M87.99,87.979h-8c-4.418,0-8-3.582-8-8v-16
			c0-4.418,3.582-8,8-8h8V87.979z M87.99,167.979h-8c-4.418,0-8-3.582-8-8v-16c0-4.418,3.582-8,8-8h8V167.979z M87.99,247.979h-8
			c-4.418,0-8-3.582-8-8v-16c0-4.418,3.582-8,8-8h8V247.979z M183.99,447.979h-16v-80h16V447.979z M215.99,447.979h-16v-80h16
			V447.979z M247.99,447.979h-16v-80h16V447.979z M279.99,447.979h-16v-80h16V447.979z M311.99,447.979h-16v-80h16V447.979z
			 M311.99,351.979h-144v-16h144V351.979z M313.926,319.979H166.054c-6.777-23.853-16.899-46.626-30.064-67.64V41.043h0.144
			c26.797,2.657,53.541-5.531,74.256-22.736c1.556-1.378,3.526-2.197,5.6-2.328c3.536-0.011,6.974,1.16,9.768,3.328
			c8.414,6.375,20.042,6.375,28.456,0c2.797-2.167,6.238-3.338,9.776-3.328c2.073,0.129,4.043,0.945,5.6,2.32
			c20.707,17.21,47.445,25.407,74.24,22.76h0.144l0.016,211.28C330.824,273.353,320.703,296.126,313.926,319.979z M391.99,215.979h8
			c4.418,0,8,3.582,8,8v16c0,4.418-3.582,8-8,8h-8V215.979z M391.99,135.979h8c4.418,0,8,3.582,8,8v16c0,4.418-3.582,8-8,8h-8
			V135.979z"/>
	</g>
</g>
<g>
	<g>
		<path d="M175.99,127.979c-2.732,0.026-5.438,0.524-8,1.472V94.507c2.562,0.948,5.268,1.445,8,1.472c13.255,0,24-10.745,24-24
			s-10.745-24-24-24s-24,10.745-24,24v80c0,13.255,10.745,24,24,24c2.732-0.027,5.438-0.524,8-1.472v34.944
			c-2.562-0.948-5.268-1.445-8-1.472c-13.255,0-24,10.745-24,24s10.745,24,24,24s24-10.745,24-24v-80
			C199.99,138.724,189.244,127.979,175.99,127.979z M175.99,63.979c4.418,0,8,3.582,8,8s-3.582,8-8,8s-8-3.582-8-8
			S171.571,63.979,175.99,63.979z M175.99,239.979c-4.418,0-8-3.582-8-8s3.582-8,8-8s8,3.582,8,8S180.408,239.979,175.99,239.979z
			 M175.99,159.979c-4.418,0-8-3.582-8-8s3.582-8,8-8s8,3.582,8,8S180.408,159.979,175.99,159.979z"/>
	</g>
</g>
<g>
	<g>
		<path d="M303.99,175.979c13.255,0,24-10.745,24-24v-80c0-13.255-10.745-24-24-24s-24,10.745-24,24s10.745,24,24,24
			c2.732-0.026,5.438-0.524,8-1.472v34.944c-2.562-0.948-5.268-1.445-8-1.472c-13.255,0-24,10.745-24,24v80
			c0,13.255,10.745,24,24,24s24-10.745,24-24s-10.745-24-24-24c-2.732,0.026-5.438,0.524-8,1.472v-34.944
			C298.552,175.454,301.258,175.952,303.99,175.979z M303.99,79.979c-4.418,0-8-3.582-8-8s3.582-8,8-8s8,3.582,8,8
			S308.408,79.979,303.99,79.979z M303.99,143.979c4.418,0,8,3.582,8,8s-3.582,8-8,8s-8-3.582-8-8S299.571,143.979,303.99,143.979z
			 M303.99,223.979c4.418,0,8,3.582,8,8s-3.582,8-8,8s-8-3.582-8-8S299.571,223.979,303.99,223.979z"/>
	</g>
</g>
<g>
</g>
<g>
</g>
<g>
</g>
<g>
</g>
<g>
</g>
<g>
</g>
<g>
</g>
<g>
</g>
<g>
</g>
<g>
</g>
<g>
</g>
<g>
</g>
<g>
</g>
<g>
</g>
<g>
</g>
</svg>
