<svg id="outline" height="512" viewBox="0 0 512 512" width="512" xmlns="http://www.w3.org/2000/svg"><path d="m71.2 491.478 176.8-366.225v67.759a31.989 31.989 0 0 0 -19.354 47.578 47.97 47.97 0 0 0 -20.646 39.41v16h-8a8 8 0 0 0 -8 8v56.41a31.626 31.626 0 0 0 31.59 31.59h64.82a31.626 31.626 0 0 0 31.59-31.59v-56.41a8 8 0 0 0 -8-8h-8v-16a47.97 47.97 0 0 0 -20.646-39.41 31.806 31.806 0 0 0 4.646-16.59h-16a15.9 15.9 0 0 1 -3.316 9.714 47.789 47.789 0 0 0 -25.368 0 15.971 15.971 0 0 1 12.684-25.714 8 8 0 0 0 8-8v-74.737l176.8 366.215 14.408-6.956-190.325-394.236 30.317-62.808-14.4-6.956-24.8 51.363-24.8-51.363-14.4 6.956 30.321 62.808-190.321 394.236zm232.8-131.068a15.607 15.607 0 0 1 -15.59 15.59h-64.82a15.607 15.607 0 0 1 -15.59-15.59v-16.41h40v-16h-40v-16h96zm-16-64.41h-64v-16a32.022 32.022 0 0 1 16.53-28 31.915 31.915 0 0 0 30.94 0 32.022 32.022 0 0 1 16.53 28z"/><path d="m294.4 419.2a8 8 0 0 0 -12.057-.857l-9.1 9.1-10.587-15.881a8 8 0 0 0 -13.312 0l-10.587 15.881-9.1-9.1a8 8 0 0 0 -12.057.857l-9.6 12.8a40 40 0 0 0 32 64h32a40 40 0 0 0 32-64zm-3.2 51.2a24.113 24.113 0 0 1 -19.2 9.6h-32a24 24 0 0 1 -19.2-38.4l4.064-5.421 9.478 9.478a8 8 0 0 0 12.313-1.219l9.345-14.016 9.344 14.016a8 8 0 0 0 12.313 1.219l9.478-9.478 4.065 5.421a24.119 24.119 0 0 1 0 28.8z"/><path d="m264 328h16v16h-16z"/></svg>