<svg id="Capa_1" enable-background="new 0 0 512 512" height="512" viewBox="0 0 512 512" width="512" xmlns="http://www.w3.org/2000/svg">
<g>
  <path style="fill: #79FBE5" d="m482 406v-210h-122.117c.726-4.948 1.117-9.958 1.117-15 0-64.733-58.259-114.95-124.049-103.314-42.027 7.433-76.66 42.009-84.221 84.083-2.07 11.521-2.229 23.058-.603 34.231h-122.127v210h-30v15c0 41.355 33.645 75 75 75h362c41.355 0 75-33.645 75-75v-15zm-299.742-238.925c5.382-29.949 30.021-54.56 59.918-59.847 48.233-8.534 88.824 28.42 88.824 73.772 0 17.625-6.023 34.101-17.419 47.645-14.296 16.991-23.429 36.925-26.463 57.346l-62.117-.041c-2.819-20.943-11.527-40.337-25.214-55.725-15.492-17.416-21.718-39.844-17.529-63.15zm-122.258 58.925h101.27c4.16 8.658 9.545 16.793 16.101 24.165 12.013 13.505 18.629 31.538 18.629 50.777v14.99l120 .078v-15.01c0-18.731 7.102-37.073 20.536-53.041 5.667-6.736 10.403-14.128 14.167-21.959h101.297v180h-392zm377 240h-362c-19.557 0-36.239-12.539-42.43-30h446.86c-6.191 17.461-22.873 30-42.43 30z"/>
  <path style="fill: #79FBE5" d="m211 346h90v30h-90z"/>
  <path style="fill: #79FBE5" d="m304.393 30.054h30v30h-30z" transform="matrix(.423 -.906 .906 .423 143.579 315.481)"/>
  <path style="fill: #79FBE5" d="m355.907 69.582h30v30h-30z" transform="matrix(.766 -.643 .643 .766 32.405 258.198)"/>
  <path style="fill: #79FBE5" d="m385.889 127.177h30v30h-30z" transform="matrix(.966 -.259 .259 .966 -23.138 108.604)"/>
  <path style="fill: #79FBE5" d="m241 16h30v30h-30z"/>
  <path style="fill: #79FBE5" d="m177.607 30.054h30v30h-30z" transform="matrix(.906 -.423 .423 .906 -.995 85.621)"/>
  <path style="fill: #79FBE5" d="m126.093 69.582h30v30h-30z" transform="matrix(.643 -.766 .766 .643 -14.393 138.298)"/>
  <path style="fill: #79FBE5" d="m96.111 127.177h30v30h-30z" transform="matrix(.259 -.966 .966 .259 -54.98 212.703)"/>
</g></svg>
